<svg xmlns="http://www.w3.org/2000/svg" width="24" height="24" viewBox="0 0 24 24">
  <g id="Grupo_6600" data-name="Grupo 6600" transform="translate(-795 -466)">
    <g id="Grupo_6293" data-name="Grupo 6293" transform="translate(797 469)">
      <ellipse id="Elipse_176" data-name="Elipse 176" cx="3.211" cy="3.205" rx="3.211" ry="3.205" transform="translate(6.822 6.811)" fill="#0c6cb1"/>
      <path id="Trazado_3674" data-name="Trazado 3674" d="M9.023,2,7.187,4H4.007A2.011,2.011,0,0,0,2,6.007v12.02a2.011,2.011,0,0,0,2.007,2H20.059a2.011,2.011,0,0,0,2.007-2V6.007a2.011,2.011,0,0,0-2.007-2h-3.18L15.043,2Zm3.01,15.025a5.008,5.008,0,1,1,5.016-5.008A5.014,5.014,0,0,1,12.033,17.025Z" transform="translate(-2 -2)" fill="#0c6cb1"/>
    </g>
    <rect id="Rectángulo_1521" data-name="Rectángulo 1521" width="24" height="24" transform="translate(795 466)" fill="none"/>
  </g>
</svg>
