<svg xmlns="http://www.w3.org/2000/svg" width="212" height="162.837" viewBox="0 0 212 162.837">
  <g id="Grupo_6596" data-name="Grupo 6596" transform="translate(-958 -170.163)">
    <g id="Grupo_6584" data-name="Grupo 6584">
      <text id="DIRECCIÓN_DE_INTERNACIONALIZACIÓN_Y_COOPERACIÓN" data-name="DIRECCIÓN DE INTERNACIONALIZACIÓN
Y COOPERACIÓN" transform="translate(1064 315)" fill="#333" font-size="14" font-family="Roboto Condensed, sans-serif" letter-spacing="-0.02em"><tspan x="-105.762" y="0">DIRECCIÓN DE INTERNACIONALIZACIÓN</tspan><tspan x="-44.491" y="14">Y COOPERACIÓN</tspan></text>
      <g id="Grupo_6584-2" data-name="Grupo 6584" transform="translate(880.203 61.256)">
        <g id="Grupo_6592" data-name="Grupo 6592" transform="translate(100.32 108.907)">
          <g id="Grupo_6587" data-name="Grupo 6587" transform="translate(35.589)">
            <g id="Grupo_6586" data-name="Grupo 6586">
              <g id="Grupo_6585" data-name="Grupo 6585">
                <g id="Grupo_6584-3" data-name="Grupo 6584">
                  <path id="Trazado_3821" data-name="Trazado 3821" d="M340.2,114.623c-.648.147-.936.362-1.005,1.011V132.2h.936V116.79a1.435,1.435,0,0,1,1.439-1.377l.069.075v-.075h2.453v-6.332H324.427v6.332h2.091a1.505,1.505,0,0,1,1.512,1.377V132.2h.794V115.634c-.075-.649-.362-.864-1.01-1.011H325.3V109.73h17.859v4.893Z" transform="translate(-268.101 -109.01)" fill="#24732b"/>
                  <path id="Trazado_3822" data-name="Trazado 3822" d="M342.592,115.97l.283.076h1.95v-3.46h-16.35v3.46h1.441l.287-.076a1.778,1.778,0,0,1,1.8,1.731V134.27h8.858l.069-16.209-.069-.36A1.8,1.8,0,0,1,342.592,115.97Z" transform="translate(-270.489 -111.077)" fill="#24732b"/>
                  <path id="Trazado_3823" data-name="Trazado 3823" d="M306.426,170.553A8.235,8.235,0,0,0,303.209,172l-1.508,1.3a1.768,1.768,0,0,0-1.437-1.006,4.654,4.654,0,0,0-2.6,1.438,1.381,1.381,0,0,1-.6-.306,6.259,6.259,0,0,0-.447-.451c-.073-.053-.461-.007-.773.424a8.246,8.246,0,0,0-.925,2.422c-.051.554-1.209,1.39-1.51,1.343-.4-.065-.649-.789-.216-1.344.418-.535,1.287-1.635,1.513-1.922a1.729,1.729,0,0,0,.433-.882c.063-.395-.306-.854-.548-.784s-.892.206-.892.206a1.124,1.124,0,0,0-.79-.293,2.551,2.551,0,0,0-1.206.363c-.625.328-1.641.842-2.468,1.366a24.155,24.155,0,0,0-3.385,2.379,2.535,2.535,0,0,1-1.125.68c-.272.037-.545-.05-.489-.628a3.589,3.589,0,0,1,.961-1.418c.424-.431,1.294-1.3,1.2-1.822a.6.6,0,0,0-.99-.374c-.247.185-1.107,1.623-1.575,2.2s-1.2,1.432-1.656,1.293c-.384-.112-.473-.358-.337-.616s1.63-1.813,1.967-2.192.727-.89.356-1.173-.865-.045-1.413.422a13.575,13.575,0,0,0-2.447,3.131,2.492,2.492,0,0,1-2.017,1.223c-.646-.072-.965-.065-1.083-.8a5.224,5.224,0,0,1,1.373-3.238s4.792-2.844,5.182-3.245c1.285-1.308.13-2.283-.495-2.3a3.592,3.592,0,0,0-1.981.96,20.568,20.568,0,0,0-3.43,3.642l-1.439-.144a2.34,2.34,0,0,0-1.442-.934,4.324,4.324,0,0,0-3.312,2.665c-.735,1.486-1.077,4.789,1,4.677a4.276,4.276,0,0,0,2.6-1.51l.066.5a1.439,1.439,0,0,0,1.584,1.007c.7-.073,2.451-.5,2.451-.5a4.181,4.181,0,0,0,1.222.644.661.661,0,0,0,.65-.145c.219-.144,1.515-1.007,1.515-1.007a1.409,1.409,0,0,0,.144.363,1.276,1.276,0,0,0,1.077.573,3.07,3.07,0,0,0,1.875-.793c.5-.554,2.415-2.3,2.593-2.448s.251-.2.217.65.415,2.52,2.043,2.083a3.856,3.856,0,0,0,1.34-.787c0,.672,1.141,1.036,1.657.787a3.14,3.14,0,0,0,1.89-2.478c.077-.727.566-1.185.847-1.12.451.1.239.562.02.981-.085.155-.345.662-.549,1.012s-.506.921-.768,1.318c-.47.712-.477,1.492-.215,1.657s1.152-.507,1.477-.835a9.5,9.5,0,0,0,1.189-2.763c.07-.445.032-.865.144-.938a2.56,2.56,0,0,1,1.226-.434c.622-.064,1.221.794,1.221.794-2.522,2.8-3.438,4.708-3.009,5.571.437.911,2.118,1.29,2.94,1.385.78.084.871.28.645.523a.771.771,0,0,1-1.074.127,21.544,21.544,0,0,0-6-1.554c-1.968-.252-4.632.354-5.315,1.077l.29-2.232h-.5c-1.52,14.477-9.224,21.684-22.981,21.9-13.255,0-20.6-7.348-21.9-21.9h-.721a30.105,30.105,0,0,0,2.3,10.949,16.6,16.6,0,0,0-3.95,1.074c-1.171.471-3.425,1.992-3.685,3.536-.41,2.458,1.063,4.867,9.49,5a33.424,33.424,0,0,0,6.068-.684,25.565,25.565,0,0,0,12.249,2.74c8.859,0,15.341-2.878,19.447-8.86a14.579,14.579,0,0,0,2.622.475,5,5,0,0,0,4.146-1.916,58.091,58.091,0,0,1,16.354,5.694c3.529,2.017,5.55,3.165,6.054,3.6a29.665,29.665,0,0,0-12.682-8.859,87.328,87.328,0,0,0-8.857-2.52c.069-1.584-.443-2.555-1.626-2.99a11.557,11.557,0,0,0-2.768-.468l-.362.789.647-2.95a1.7,1.7,0,0,1,.723-.436,10.688,10.688,0,0,1,4.9-1.077c1.816.193,4.776,1.558,6.552,1.514a5.087,5.087,0,0,0,3.313-1.454.858.858,0,0,0-.161-1.381,9.832,9.832,0,0,0-2.385-1.129,21.171,21.171,0,0,1-2.22-.381c-.744-.984,1-2.652,1.627-3.247s2.7-2.54,3.458-2.617a14.439,14.439,0,0,0,4.047-.769C309.421,172.812,309.189,170.213,306.426,170.553Zm-.265,1.353a2.54,2.54,0,0,1,1.23.025c.36.143.375.764-1.369,1.008-.809.11-2.307.287-2.307.287A4.146,4.146,0,0,1,306.161,171.906Zm-23.448-3.257c.431-.288,1.17.181.547.547-.379.228-2.379,1.292-2.379,1.292A7.446,7.446,0,0,1,282.713,168.649Zm-8.012,5.007a2.523,2.523,0,0,0,.274.074c.294.29-.63,2.172-1.006,2.448s-.507.58-1.012.506-.509-.68-.358-1.3a6.293,6.293,0,0,1,1.227-2.446A1.481,1.481,0,0,0,274.7,173.656Zm17.421-.286c.935-.342,1.032.486.921.687a5.123,5.123,0,0,1-.491.9,6.879,6.879,0,0,1-1.444,1.223c-.267.174-.49.345-.649.29s-.388-.684-.139-1.513C290.529,174.243,291.781,173.492,292.122,173.37Zm-2.953,15.524c.835.252,1.117.951.639,1.232s-1.908.3-2.442.749C287.872,188.682,288.7,188.754,289.169,188.894Zm-44.492,4.269c.346-.032,1.27.019,1.27.019a21.732,21.732,0,0,0,3.168,3.813,13.386,13.386,0,0,1-3.848.467,8.6,8.6,0,0,1-4.117-.564c-1.27-.587-1.045-1.348-.143-2.184A5.794,5.794,0,0,1,244.677,193.162Z" transform="translate(-216.631 -143.409)" fill="#24732b"/>
                  <path id="Trazado_3824" data-name="Trazado 3824" d="M296.9,150.317c-.3.037-.7.092-.7.092.718-1.223.6-1.95.069-2.378a3.417,3.417,0,0,0-2.017-.5,3.48,3.48,0,0,0-.936.068c.288-1.584.08-2.242-.743-2.277s-2.841,1.344-4.085,2.5c-1.269,1.178-2.059,2.47-1.7,2.271a17.97,17.97,0,0,1,2.927-1.7,14.106,14.106,0,0,1-.539,2.759,21.492,21.492,0,0,1-1.909,4.228c-.5.818-4.47,5.8-5.833,7.565a1.047,1.047,0,0,0,.859,1.722c.794.079,1.654-.644,2.378-1.8s7.229-11.557,7.536-11.942.609-.65,1.091-.421-.022,2.237-.339,2.637-3.266,4.027-3.533,4.468-.4,1.171,0,1.224.655.008.866-.288,3.46-4.2,3.961-4.751,1.24-1.629,1.871-1.441-.282,2.308-.646,2.953-2.954,5.258-2.954,5.258c-3.816,2.3-6.192,4.677-7.059,7.131a23.5,23.5,0,0,0-6.337,1.724l-.361-2.661h-1.223c.5,4.251,1.942,7.2,4.248,9.075a11.754,11.754,0,0,0,7.633,2.667A12.047,12.047,0,0,0,297,176.2c2.376-1.513,3.74-4.752,4.176-9.436h-1.01l-.072,1.01-.072-.073c-.336-.527-4.97-.919-6.144-.931-1.145-.007-2.282.066-2.282.066s6.186-12.155,6.623-13.183C298.729,152.45,299.243,150.013,296.9,150.317Zm-8.692,15.866c.155-.2,2.087-2.374,2.665-2.3,0,0-1.066,1.9-1.588,2.666-.325.479-.9.873-1.222.648S288.045,166.387,288.207,166.183Zm6.09,6.756a1.118,1.118,0,0,1,1.4.486c.252.458.089,1.217-1.15,1.115a7.044,7.044,0,0,1-1.873-.582A5.364,5.364,0,0,1,294.3,172.939Zm1.183-1.134c0-.289,2.038-.715,2.592-.795a5.432,5.432,0,0,1,1.371.07A10.092,10.092,0,0,1,298,174.034a1.871,1.871,0,0,0-2.088-2.228Zm-5.547-2.384,4.9.077c-1.834.564-4.066,2.54-4.706,2.675-1.242.268-4.094.367-7.43.605-1.927.139-2.7-1.655-.081-2.665a10.673,10.673,0,0,1,2.346-.478c-.068,1.232.342,2.164,1.951,2.17A3.8,3.8,0,0,0,289.933,169.421Zm7.13,5.765c-1.871,1.943-4.468,2.807-7.779,2.807a12.578,12.578,0,0,1-4.467-.792l.074-.073,5.762-2.446a5.71,5.71,0,0,0,3.478,1.5,5.521,5.521,0,0,0,2.285-.487A1.8,1.8,0,0,0,297.063,175.187Zm-14.841.218s-1.7-1.7-.9-1.506a9.542,9.542,0,0,0,1.348.29,7.43,7.43,0,0,1,1.44.046c.409.074.776.232.844.448Z" transform="translate(-240.448 -130.386)" fill="#24732b"/>
                  <path id="Trazado_3825" data-name="Trazado 3825" d="M353.638,174.19c-.086-.18-.444-.219-.586-.161a3.14,3.14,0,0,0-.62.39.9.9,0,0,0-.247.874.478.478,0,0,0,.489.317,2.007,2.007,0,0,0,.718-.5A.777.777,0,0,0,353.638,174.19Z" transform="translate(-284.457 -147.305)" fill="#24732b"/>
                  <path id="Trazado_3826" data-name="Trazado 3826" d="M297.194,197.594h-9.218c-.583,5.186-2.164,8.645-4.9,10.3a13.561,13.561,0,0,1-7.636,2.161,12.744,12.744,0,0,1-8.138-2.81c-2.521-1.947-3.962-5.263-4.467-9.654h-9c1.223,14.047,8.356,21.1,21.178,21.174C288.331,218.622,295.752,211.568,297.194,197.594Z" transform="translate(-226.459 -161.22)" fill="#24732b"/>
                  <path id="Trazado_3827" data-name="Trazado 3827" d="M261.126,115.244v-6.337H241.532v6.337H243.7a1.383,1.383,0,0,1,1.441,1.37v15.411h.792V115.75a1.046,1.046,0,0,0-1.009-1.083H242.4v-4.9h17.864v4.9h-2.956a1.042,1.042,0,0,0-1.005,1.083v16.275h.935V116.615a1.445,1.445,0,0,1,1.512-1.37Z" transform="translate(-219.204 -108.907)" fill="#24732b"/>
                  <path id="Trazado_3828" data-name="Trazado 3828" d="M259.7,116.218h2.236v-3.46H245.58v3.46h1.726a1.832,1.832,0,0,1,1.8,1.8V134.3h8.859V118.022A1.876,1.876,0,0,1,259.7,116.218Z" transform="translate(-221.592 -111.179)" fill="#24732b"/>
                  <path id="Trazado_3829" data-name="Trazado 3829" d="M213.454,155.05a7.1,7.1,0,0,0-1.367.289.841.841,0,0,0-.792-.363c-.924-.007-2.587,1.344-3.529,2.669s-1.947,2.736-1.947,2.736-.2-.392-.358-.431-.264.095-.291.283-.132,2.156-.791,2.02c-.456-.089-.7-1.044-.217-2.091a13.772,13.772,0,0,1,3.174-3.475.908.908,0,0,0-.246-1.628,1.558,1.558,0,0,0-1.629.787c-2.237,1.726-3.675,2.447-4.467,2.159,1.292-3.459.549-5.32-1.8-5.188a24.333,24.333,0,0,0-3.533.651,7.931,7.931,0,0,1-2.522.432c-1.986.02-1.433-1.9,1.148-3.1a33.628,33.628,0,0,1,5.693-1.8s3.92-.855,5.3-1.317c2.86-.958,2.3-2.939.774-3.339s-4.778,1.053-5.426,1.626a32.126,32.126,0,0,1,3.674-.932c1.127-.139,1.336.769.578,1.006s-4.377,1.175-6.042,1.672a35.333,35.333,0,0,0-7.355,3.081c-1.515,1.018-2.718,2.925-2.522,3.964a2.222,2.222,0,0,0,2.316,1.706c1.828-.059,6.954-2.042,7.916-2.066s1.292.973,1,2.015a9.755,9.755,0,0,1-.8,1.945c-2.456,1.332-4.91,2.757-5.773,3.346a47.291,47.291,0,0,0-4.668,3.5,4.717,4.717,0,0,0-1.335,5.9,2.374,2.374,0,0,0,2.185.926c1.034.007,3.184-1.132,4.913-2.866a30.4,30.4,0,0,0,3.742-5.761c.928-1.8,2.16-4.179,2.16-4.179s-.03.082.648.075a5.878,5.878,0,0,0,1.51-.288c-1.6,4.274-.939,5.305,1.215,4.684a3.256,3.256,0,0,0,1.958-1.585c0,.216.627.675.961.74a1.087,1.087,0,0,0,.878-.2c.721-.427.9-.91.536-.907-.985.011-.8-1.413.5-3.094A9.33,9.33,0,0,1,211,156.78a7.773,7.773,0,0,0-1.584,3.6c-.219,1.313.261,2,1.1,1.9.613-.069.826-1.111.564-1.9-.118-.347.4-1.361,1.292-2.376a5.954,5.954,0,0,1,.793-.72,3.484,3.484,0,0,1-.286.934,6.335,6.335,0,0,0-.833,3.107c.051.686.4,1.213.9,1.145.5,0,.975-.334.794-.935-.386-1.28,0-2.592,1.223-4.251.647-.718.627-1.213.394-1.485a1.064,1.064,0,0,0-.9-.314A1.089,1.089,0,0,0,213.454,155.05Zm-17.935,6.984a24.461,24.461,0,0,1,2.646-1.2,28.529,28.529,0,0,1-2.862,4.153c-1.228,1.292-3.166,3.1-4.321,3.1-.936,0-.851-1.206.216-2.592A15.714,15.714,0,0,1,195.519,162.035Z" transform="translate(-187.093 -129.771)" fill="#24732b"/>
                  <path id="Trazado_3830" data-name="Trazado 3830" d="M268.72,168.316c-.093.106-.6,1.072-.5,1.15s.389-.045.577-.144l1.075-.576C269.947,168.469,268.953,168.039,268.72,168.316Z" transform="translate(-234.938 -143.897)" fill="#24732b"/>
                  <path id="Trazado_3831" data-name="Trazado 3831" d="M258.379,171.957c-1.277.008-2.645,1.39-3.243,2.592-.863,1.733-.783,4.123.691,4.515,1.509.407,3.038-1.17,3.773-2.575a5.032,5.032,0,0,0,.58-2.3s1.021-.351,1.294-.433.408.208.324.6a20.123,20.123,0,0,1-2,3.157c-.4.519-1.049,1.7-.2,1.644.564-.036.9-.783,1.157-1.155s2.56-3.837,2.878-4.16a3.426,3.426,0,0,1,.863-.737c.758-.194.837.216.363.8a10.909,10.909,0,0,0-2.118,4.019c-.087.862.253,1.238.75,1.166a1.613,1.613,0,0,0,.564-.185c.96-.46,1.221-.923.877-.821-.55.16-.726-.653-.436-1.228s1.862-2.884,2.162-3.311.146-1.179-.848-1.576a3.024,3.024,0,0,0-2.607.5c-.028-.228-.718-.648-1.007-.347a3.245,3.245,0,0,1-1.589.709,3.834,3.834,0,0,1-.791,0S259.656,171.946,258.379,171.957Zm-.074,2.734a.131.131,0,0,0,.147-.072c.29.291-.073,1.374-.694,2.176-.431.561-.879.906-1.235.84-.5-.094-.517-.692-.378-1.287A7.2,7.2,0,0,1,257.3,173.9,9.778,9.778,0,0,0,258.3,174.69Z" transform="translate(-226.902 -146.026)" fill="#24732b"/>
                  <path id="Trazado_3832" data-name="Trazado 3832" d="M237.252,165.543c.024-.161-.272-.312-.62-.5-.295-.16-.539.232-.585.326s-.281.558-.352.757-.018.583.217.647a1.173,1.173,0,0,0,.866-.29A2.573,2.573,0,0,0,237.252,165.543Z" transform="translate(-215.744 -141.997)" fill="#24732b"/>
                </g>
              </g>
            </g>
          </g>
          <g id="Grupo_6591" data-name="Grupo 6591" transform="translate(0 67.874)">
            <g id="Grupo_6588" data-name="Grupo 6588">
              <path id="Trazado_3833" data-name="Trazado 3833" d="M111,275.353l-.071.072c-.568,0-.886.15-.957.453a7.675,7.675,0,0,0-.086,1.09q-.021.626-.02,1.8v2.211a4.46,4.46,0,0,1-.842,3.05,4.1,4.1,0,0,1-3.174,1.2,5.806,5.806,0,0,1-2.939-.625,2.483,2.483,0,0,1-1.163-1.51,17.246,17.246,0,0,1-.173-3.262v-1.854a16.284,16.284,0,0,0-.094-2.225.316.316,0,0,0-.244-.267,8.359,8.359,0,0,0-.841-.071l-.072-.072v-.482l.072-.072c.461.027,1.2.044,2.213.044,1.035,0,1.77-.016,2.206-.044l.071.072v.482l-.071.072a8.359,8.359,0,0,0-.841.071.315.315,0,0,0-.244.267,16.027,16.027,0,0,0-.094,2.225v1.48a12.57,12.57,0,0,0,.245,3.326c.324.8,1.127,1.209,2.405,1.209a2.869,2.869,0,0,0,1.963-.62,1.774,1.774,0,0,0,.461-.595,3.582,3.582,0,0,0,.2-.936,10.7,10.7,0,0,0,.067-1.193v-1.495c0-1.252-.006-2.11-.015-2.568a3.23,3.23,0,0,0-.087-.845.433.433,0,0,0-.251-.221,4.232,4.232,0,0,0-.884-.106l-.072-.072v-.482l.072-.072c.418.027.847.044,1.286.044.331,0,.964-.016,1.905-.044l.071.072Z" transform="translate(-100.32 -274.635)" fill="#24732b"/>
              <path id="Trazado_3834" data-name="Trazado 3834" d="M154.114,275.368l-.08.074a7.136,7.136,0,0,0-.84.071.313.313,0,0,0-.244.267,16.306,16.306,0,0,0-.092,2.227v2.915q0,3.229.092,4.2l-.092.066c-.541-.094-.952-.157-1.229-.193q-1.927-2.165-6.575-7.891v4.7a15.958,15.958,0,0,0,.095,2.227.316.316,0,0,0,.244.268c.071.016.353.042.84.071l.073.072v.489l-.073.066c-.55-.03-1.064-.044-1.538-.044q-.826,0-1.659.044l-.073-.066v-.489l.073-.072c.488-.029.768-.055.842-.071a.315.315,0,0,0,.242-.268,15.849,15.849,0,0,0,.094-2.227v-3.8a15.841,15.841,0,0,0-.094-2.227.311.311,0,0,0-.242-.267,7.173,7.173,0,0,0-.842-.071l-.073-.074v-.488l.073-.063c.456.03.89.043,1.3.043.648,0,1.183-.013,1.61-.043q2.586,3.448,6.079,7.393v-4.2a15.927,15.927,0,0,0-.1-2.227.31.31,0,0,0-.244-.267,7.015,7.015,0,0,0-.84-.071l-.071-.074v-.488l.071-.063c.536.03,1.046.043,1.531.043.616,0,1.172-.013,1.665-.043l.072.063Z" transform="translate(-125.474 -274.645)" fill="#24732b"/>
              <path id="Trazado_3835" data-name="Trazado 3835" d="M191.434,284.907l-.065.074c-.478-.027-1.219-.043-2.219-.043s-1.734.016-2.214.043l-.063-.074v-.481l.073-.073a7.439,7.439,0,0,0,.84-.069.313.313,0,0,0,.244-.267,16.071,16.071,0,0,0,.093-2.228v-3.8a16.029,16.029,0,0,0-.093-2.225.315.315,0,0,0-.244-.267c-.073-.019-.353-.041-.84-.071l-.073-.072v-.49l.073-.064c.458.027,1.2.044,2.209.044s1.748-.016,2.207-.044l.073.064v.49l-.073.072c-.487.03-.768.052-.84.071a.315.315,0,0,0-.244.267,16.237,16.237,0,0,0-.093,2.225v3.8a16.28,16.28,0,0,0,.093,2.228.312.312,0,0,0,.244.267,7.442,7.442,0,0,0,.84.069l.073.073Z" transform="translate(-151.374 -274.635)" fill="#24732b"/>
              <path id="Trazado_3836" data-name="Trazado 3836" d="M225.293,275.361l-.071.071a2.306,2.306,0,0,0-.644.121.781.781,0,0,0-.3.326,12.377,12.377,0,0,0-.617,1.348l-.509,1.217-.965,2.341q-1.242,3.016-1.673,4.245h-1.093l-3.3-7.994a5.832,5.832,0,0,0-.732-1.439,1.6,1.6,0,0,0-.878-.164l-.073-.079v-.473l.08-.08c.5.027,1.137.044,1.905.044.956,0,1.828-.016,2.612-.044l.073.08v.481l-.063.071a2.383,2.383,0,0,0-.957.128.262.262,0,0,0-.122.246,7.446,7.446,0,0,0,.468,1.364l.337.854,1.817,4.494,1.6-4c.062-.152.206-.54.431-1.156a8.6,8.6,0,0,0,.487-1.559c0-.157-.051-.253-.156-.289a5.727,5.727,0,0,0-.963-.078l-.072-.071v-.489l.08-.072c.54.027,1.1.044,1.688.044.415,0,.926-.016,1.53-.044l.078.08Z" transform="translate(-167.637 -274.635)" fill="#24732b"/>
              <path id="Trazado_3837" data-name="Trazado 3837" d="M264.625,282.537a16.271,16.271,0,0,0-.156,2.37l-.073.074-5.224-.043c-.873,0-1.488.016-1.848.043l-.071-.074v-.2l.034-.087a2.619,2.619,0,0,0,.577-.425,3.769,3.769,0,0,0,.078-.956l.022-1.608v-3.644a15.455,15.455,0,0,0-.1-2.225.311.311,0,0,0-.243-.267,8.327,8.327,0,0,0-.839-.071l-.073-.072v-.49l.073-.064c.483.027,1.229.044,2.24.044q1.35,0,5.138-.044l.078.057-.094.8c-.029.255-.052.469-.064.646l-.051.668-.071.08h-.418l-.071-.071a2.921,2.921,0,0,0-.115-1.114,1.647,1.647,0,0,0-.772-.158q-.693-.055-1.218-.056-.626,0-1.265.049-.078.752-.078,2.09v1.49c.379.022.685.034.918.034l.943,0c.438-.007.688-.043.748-.11a2.347,2.347,0,0,0,.15-.972l.073-.068h.444l.073.068c-.021.539-.031,1.029-.031,1.473,0,.486.011,1.014.031,1.59l-.073.064h-.48l-.073-.071a2.35,2.35,0,0,0-.113-.982c-.078-.1-.311-.171-.7-.2q-.437-.036-.933-.036-.526,0-.977.036v2.191c0,.627.011,1.235.036,1.825h.978a11.171,11.171,0,0,0,2.573-.166.231.231,0,0,0,.113-.078,1.257,1.257,0,0,0,.137-.433l.171-.889.071-.08h.439Z" transform="translate(-192.572 -274.635)" fill="#24732b"/>
              <path id="Trazado_3838" data-name="Trazado 3838" d="M302.411,284.877l-.069.074c-.035,0-.127,0-.272-.008-.66-.021-1.07-.035-1.231-.035-.245,0-.631.016-1.166.043a1.914,1.914,0,0,0-.272-.577l-1.781-2.972-.8-1.216a1.984,1.984,0,0,0-.423-.439l.079-.243c.109.005.192.008.244.008a2.3,2.3,0,0,0,1.106-.223,1.93,1.93,0,0,0,.674-.7,2.239,2.239,0,0,0,.308-1.2,1.626,1.626,0,0,0-.905-1.638,3.055,3.055,0,0,0-1.255-.2,3.88,3.88,0,0,0-.689.057q-.073.7-.074,2.4v3.755a15.953,15.953,0,0,0,.1,2.228.31.31,0,0,0,.244.267,7.346,7.346,0,0,0,.841.069l.072.073v.481l-.066.074c-.478-.027-1.215-.043-2.213-.043-1.029,0-1.766.016-2.211.043l-.073-.066V284.4l.073-.073a7.447,7.447,0,0,0,.84-.069.315.315,0,0,0,.244-.267,16.213,16.213,0,0,0,.093-2.228v-3.8a16.17,16.17,0,0,0-.093-2.225.317.317,0,0,0-.244-.267c-.073-.019-.353-.041-.84-.071l-.073-.072v-.49l.073-.064c.469.027,1.207.044,2.211.044.584,0,1.059-.007,1.423-.023q1.086-.042,1.622-.041a5.43,5.43,0,0,1,1.825.222,1.706,1.706,0,0,1,1.051,1.019,2.491,2.491,0,0,1,.128.835,2.875,2.875,0,0,1-2.2,2.773q.362.6.764,1.22l1.107,1.7a7.8,7.8,0,0,0,1.3,1.716.836.836,0,0,0,.46.109l.069.072Z" transform="translate(-213.725 -274.605)" fill="#24732b"/>
              <path id="Trazado_3839" data-name="Trazado 3839" d="M340.693,281.38a3.409,3.409,0,0,1-.675,2.092,3.562,3.562,0,0,1-1.543,1.186,5.538,5.538,0,0,1-2.094.358,6.83,6.83,0,0,1-2.959-.69l-.087-.16a10.5,10.5,0,0,0,.2-2.348l.072-.071h.459l.065.071v.166a9,9,0,0,0,.085,1.061,2.081,2.081,0,0,0,.929.793,3.242,3.242,0,0,0,1.451.346,2.055,2.055,0,0,0,1.968-.992,2.189,2.189,0,0,0,.279-1.056,1.37,1.37,0,0,0-.767-1.317,4.48,4.48,0,0,0-1.229-.322,6.482,6.482,0,0,1-2.523-.74,2.431,2.431,0,0,1-.912-2.09,2.972,2.972,0,0,1,.993-2.35,4.264,4.264,0,0,1,2.916-.921,5.9,5.9,0,0,1,2.714.538l.052.172a12.465,12.465,0,0,0-.211,2.054l-.078.074h-.453l-.071-.074a9.409,9.409,0,0,0-.071-1.119,1.7,1.7,0,0,0-.777-.575,3.184,3.184,0,0,0-1.228-.247,2.167,2.167,0,0,0-1.524.513,1.6,1.6,0,0,0-.525,1.242,1.345,1.345,0,0,0,.6,1.214,5.74,5.74,0,0,0,1.833.481c.1.015.38.065.84.145a4.366,4.366,0,0,1,.783.206,2.195,2.195,0,0,1,1.091.836A2.759,2.759,0,0,1,340.693,281.38Z" transform="translate(-237.767 -274.397)" fill="#24732b"/>
              <path id="Trazado_3840" data-name="Trazado 3840" d="M373.229,284.907l-.066.074c-.482-.027-1.219-.043-2.22-.043s-1.737.016-2.212.043l-.065-.074v-.481l.072-.073a7.247,7.247,0,0,0,.838-.069.316.316,0,0,0,.246-.267,16.044,16.044,0,0,0,.095-2.228v-3.8a16,16,0,0,0-.095-2.225.319.319,0,0,0-.246-.267,8.215,8.215,0,0,0-.838-.071l-.072-.072v-.49l.072-.064c.459.027,1.2.044,2.215.044s1.743-.016,2.2-.044l.074.064v.49l-.074.072a8.355,8.355,0,0,0-.839.071.315.315,0,0,0-.244.267,16.1,16.1,0,0,0-.1,2.225v3.8a16.14,16.14,0,0,0,.1,2.228.313.313,0,0,0,.244.267,7.358,7.358,0,0,0,.839.069l.074.073Z" transform="translate(-258.607 -274.635)" fill="#24732b"/>
              <path id="Trazado_3841" data-name="Trazado 3841" d="M407.6,279.26a5.5,5.5,0,0,1-1.587,4.037,5.332,5.332,0,0,1-1.882,1.215,7.2,7.2,0,0,1-2.766.438l-2.535-.043a17.046,17.046,0,0,0-1.713.043l-.07-.074v-.2l.036-.087a2.473,2.473,0,0,0,.574-.425,3.622,3.622,0,0,0,.08-.956l.022-1.608v-3.644a15.977,15.977,0,0,0-.094-2.225.319.319,0,0,0-.245-.267,8.363,8.363,0,0,0-.839-.071l-.074-.072v-.49l.074-.064c.506.027.99.044,1.45.044,1.116,0,2.121-.016,3.018-.044.447-.014.893-.021,1.343-.021a7.632,7.632,0,0,1,2.868.421,3.644,3.644,0,0,1,1.709,1.467A4.929,4.929,0,0,1,407.6,279.26Zm-2.2.345a4.426,4.426,0,0,0-.962-3.061,2.722,2.722,0,0,0-1.257-.792,7.415,7.415,0,0,0-2-.213,8.644,8.644,0,0,0-1.282.091q-.07.805-.07,3.9l.013,3.14a13.172,13.172,0,0,0,.057,1.391,7.984,7.984,0,0,0,1.3.1,5.047,5.047,0,0,0,2.255-.417,3.216,3.216,0,0,0,1.414-1.536A5.912,5.912,0,0,0,405.395,279.605Z" transform="translate(-275.029 -274.605)" fill="#24732b"/>
              <path id="Trazado_3842" data-name="Trazado 3842" d="M450.925,284.836l-.066.074c-1.061-.027-1.7-.043-1.922-.043-.88,0-1.7.016-2.46.043l-.065-.074v-.45l.072-.08.625-.038c.262-.012.4-.105.4-.277a2.653,2.653,0,0,0-.2-.678l-.584-1.515c-.661-.01-1.334-.015-2.024-.015-.374,0-.93.005-1.67.015l-.316.876a5.433,5.433,0,0,0-.355,1.251c0,.182.11.289.334.323.125.019.372.038.732.057l.074.072v.459l-.074.074c-.886-.027-1.453-.043-1.707-.043-.2,0-.683.016-1.461.043l-.071-.066v-.467l.079-.072c.494-.028.795-.128.908-.3s.536-1.166,1.269-3l1.872-4.692q.212-.544.633-1.643h1.019l3.811,8.959c.149.339.28.531.4.575a2.143,2.143,0,0,0,.679.086l.066.079Zm-4.553-3.865-1.538-3.763-1.475,3.763c.392.014.9.023,1.532.023C445.5,280.994,445.991,280.985,446.372,280.971Z" transform="translate(-300.794 -274.563)" fill="#24732b"/>
              <path id="Trazado_3843" data-name="Trazado 3843" d="M494.08,279.26a5.506,5.506,0,0,1-1.586,4.037,5.371,5.371,0,0,1-1.884,1.215,7.19,7.19,0,0,1-2.766.438l-2.537-.043a16.981,16.981,0,0,0-1.709.043l-.072-.074v-.2l.037-.087a2.638,2.638,0,0,0,.576-.425,3.837,3.837,0,0,0,.077-.956l.021-1.608v-3.644a16,16,0,0,0-.093-2.225.313.313,0,0,0-.243-.267,8.431,8.431,0,0,0-.843-.071l-.071-.072v-.49l.071-.064c.51.027.992.044,1.452.044,1.116,0,2.123-.016,3.019-.044.445-.014.891-.021,1.343-.021a7.639,7.639,0,0,1,2.867.421,3.653,3.653,0,0,1,1.709,1.467A4.922,4.922,0,0,1,494.08,279.26Zm-2.206.345a4.428,4.428,0,0,0-.962-3.061,2.722,2.722,0,0,0-1.258-.792,7.4,7.4,0,0,0-2-.213,8.625,8.625,0,0,0-1.278.091q-.073.805-.074,3.9l.016,3.14a11.977,11.977,0,0,0,.057,1.391,7.953,7.953,0,0,0,1.293.1,5.049,5.049,0,0,0,2.256-.417,3.213,3.213,0,0,0,1.415-1.536A5.929,5.929,0,0,0,491.874,279.605Z" transform="translate(-326.041 -274.605)" fill="#24732b"/>
            </g>
            <g id="Grupo_6589" data-name="Grupo 6589" transform="translate(0 14.217)">
              <path id="Trazado_3844" data-name="Trazado 3844" d="M109.9,328.889a4.418,4.418,0,0,1-.88,2.722,4.573,4.573,0,0,1-2.011,1.54,7.152,7.152,0,0,1-2.721.469,8.88,8.88,0,0,1-3.853-.9l-.113-.208a13.645,13.645,0,0,0,.263-3.055l.094-.094h.6l.085.094v.214a11.063,11.063,0,0,0,.112,1.383,2.659,2.659,0,0,0,1.206,1.029,4.222,4.222,0,0,0,1.89.45,2.666,2.666,0,0,0,2.561-1.288,2.828,2.828,0,0,0,.366-1.378,1.777,1.777,0,0,0-1-1.711,5.572,5.572,0,0,0-1.6-.419,8.378,8.378,0,0,1-3.285-.965,3.161,3.161,0,0,1-1.185-2.721A3.879,3.879,0,0,1,101.715,321a5.565,5.565,0,0,1,3.8-1.2,7.641,7.641,0,0,1,3.535.7l.065.224a16.1,16.1,0,0,0-.271,2.674l-.1.091h-.589l-.093-.091a11.816,11.816,0,0,0-.094-1.458,2.235,2.235,0,0,0-1.011-.75,4.193,4.193,0,0,0-1.6-.317,2.832,2.832,0,0,0-1.982.665,2.1,2.1,0,0,0-.684,1.618,1.753,1.753,0,0,0,.778,1.581,7.532,7.532,0,0,0,2.385.624c.128.019.492.083,1.093.187a5.5,5.5,0,0,1,1.02.272,2.82,2.82,0,0,1,1.421,1.085A3.58,3.58,0,0,1,109.9,328.889Z" transform="translate(-100.32 -315.395)" fill="#24732b"/>
              <path id="Trazado_3845" data-name="Trazado 3845" d="M134.926,333.48l-.085.093c-.622-.036-1.586-.056-2.888-.056s-2.256.02-2.883.056l-.082-.093v-.627l.093-.1a10.706,10.706,0,0,0,1.1-.092.408.408,0,0,0,.317-.346,21.044,21.044,0,0,0,.123-2.9v-4.946a21.016,21.016,0,0,0-.123-2.9.405.405,0,0,0-.317-.347,10.025,10.025,0,0,0-1.1-.093l-.093-.1V320.4l.093-.083q.9.058,2.879.056c1.317,0,2.273-.017,2.872-.056l.094.083v.637l-.094.1a9.989,9.989,0,0,0-1.1.093.4.4,0,0,0-.316.347,20.87,20.87,0,0,0-.124,2.9v4.946a20.9,20.9,0,0,0,.124,2.9.405.405,0,0,0,.316.346,10.666,10.666,0,0,0,1.1.092l.094.1Z" transform="translate(-117.23 -315.702)" fill="#24732b"/>
              <path id="Trazado_3846" data-name="Trazado 3846" d="M165.982,333.48l-.1.093c-.615-.036-1.577-.056-2.879-.056q-2,0-2.881.056l-.084-.084v-.636l.094-.1a10.523,10.523,0,0,0,1.093-.092.41.41,0,0,0,.32-.346,21.1,21.1,0,0,0,.121-2.9V323.1l-2.085,4.272c-.119.242-.524,1.111-1.217,2.622l-1.711,3.742h-.627q-.485-1.161-1.318-2.928l-1.309-2.78-2.451-5.1v6.491a21.026,21.026,0,0,0,.122,2.9.409.409,0,0,0,.318.346,10.7,10.7,0,0,0,1.094.092l.094.1v.636l-.094.084q-1.075-.054-2-.056-1.075,0-2.158.056l-.094-.084v-.636l.094-.1a10.48,10.48,0,0,0,1.091-.092.407.407,0,0,0,.319-.346,21.043,21.043,0,0,0,.123-2.9v-4.946a21.015,21.015,0,0,0-.123-2.9.4.4,0,0,0-.319-.347,9.819,9.819,0,0,0-1.091-.093l-.094-.1V320.4l.094-.083c.646.039,1.468.056,2.458.056.759,0,1.425-.017,1.992-.056.2.475.5,1.14.879,2l.6,1.288,2.975,6.221,1.431-2.9,2.234-4.78q.394-.853.767-1.835c.705.039,1.178.056,1.421.056q1.835,0,2.8-.056l.1.083v.647l-.1.086a9.945,9.945,0,0,0-1.093.093.406.406,0,0,0-.319.347,21.279,21.279,0,0,0-.121,2.9v4.946a21.308,21.308,0,0,0,.121,2.9.408.408,0,0,0,.319.346,10.619,10.619,0,0,0,1.093.092l.1.1Z" transform="translate(-128.581 -315.702)" fill="#24732b"/>
              <path id="Trazado_3847" data-name="Trazado 3847" d="M210.432,319.964a7.223,7.223,0,0,1-2.012,5.415,7.32,7.32,0,0,1-5.338,1.905,6.847,6.847,0,0,1-5.022-1.8,6.727,6.727,0,0,1-1.822-5.008q0-4.5,3.432-6.228a8.45,8.45,0,0,1,3.842-.787,7.106,7.106,0,0,1,5.079,1.712A6.261,6.261,0,0,1,210.432,319.964Zm-2.88.485a7.513,7.513,0,0,0-1.09-4.306,3.618,3.618,0,0,0-3.193-1.6,3.568,3.568,0,0,0-3.683,2.5,8.326,8.326,0,0,0-.469,2.869,8.446,8.446,0,0,0,1.067,4.566,3.659,3.659,0,0,0,3.3,1.73,3.521,3.521,0,0,0,3.581-2.626A9.439,9.439,0,0,0,207.552,320.449Zm-1.168-11.109-4.219,3.047-.43-.326v-.131l2.05-2.58,2.392-.291Z" transform="translate(-156.898 -309.06)" fill="#24732b"/>
              <path id="Trazado_3848" data-name="Trazado 3848" d="M250.648,321.041l-.1.1a9.961,9.961,0,0,0-1.094.093.4.4,0,0,0-.317.347,20.924,20.924,0,0,0-.122,2.9v3.8q0,4.2.122,5.47l-.122.085c-.705-.121-1.238-.206-1.6-.254q-2.506-2.814-8.557-10.267v6.115a21.042,21.042,0,0,0,.123,2.9.407.407,0,0,0,.316.346,10.708,10.708,0,0,0,1.1.092l.091.1v.636l-.091.084c-.719-.036-1.385-.056-2-.056q-1.074,0-2.159.056l-.094-.084v-.636l.094-.1a10.566,10.566,0,0,0,1.093-.092.405.405,0,0,0,.318-.346,21.042,21.042,0,0,0,.121-2.9v-4.946a21.014,21.014,0,0,0-.121-2.9.4.4,0,0,0-.318-.347,9.9,9.9,0,0,0-1.093-.093l-.094-.1V320.4l.094-.083c.592.039,1.156.056,1.694.056.841,0,1.537-.017,2.094-.056q3.366,4.487,7.911,9.625v-5.471a20.812,20.812,0,0,0-.121-2.9.4.4,0,0,0-.319-.347,9.906,9.906,0,0,0-1.092-.093l-.095-.1V320.4l.095-.083c.7.039,1.361.056,1.991.056.8,0,1.527-.017,2.168-.056l.094.083Z" transform="translate(-180.432 -315.702)" fill="#24732b"/>
            </g>
            <g id="Grupo_6590" data-name="Grupo 6590" transform="translate(77.079 14.217)">
              <path id="Trazado_3849" data-name="Trazado 3849" d="M299.222,329.258a4,4,0,0,1-2.272,3.638,5.794,5.794,0,0,1-2.892.635c-.37,0-.68,0-.923-.01l-2.235-.047c-.8,0-1.415.022-1.851.057l-.094-.092v-.263l.046-.114a3.177,3.177,0,0,0,.747-.55,4.81,4.81,0,0,0,.1-1.244l.03-2.1v-4.74a21.1,21.1,0,0,0-.122-2.9.408.408,0,0,0-.318-.346,9.972,9.972,0,0,0-1.092-.094l-.094-.095v-.636l.094-.083c.554.039,1.506.055,2.859.055q1.29,0,2.328-.045c.55-.025,1.013-.039,1.4-.039q2.61,0,3.422,1.187a2.484,2.484,0,0,1,.429,1.44,2.8,2.8,0,0,1-1.037,2.216,3.555,3.555,0,0,1-1.027.627,10.756,10.756,0,0,1-1.349.4Q299.223,326.292,299.222,329.258Zm-3.262-5.922q0-2.066-2.153-2.063a7.783,7.783,0,0,0-1.206.076q-.036.976-.036,1.811v2.583c.142.009.428.016.859.016a2.224,2.224,0,0,0,2.225-1.086A2.96,2.96,0,0,0,295.96,323.336Zm.4,6.212q0-2.8-2.946-2.806c-.251,0-.532.009-.85.03v4.33q0,.7.036,1.373a7.015,7.015,0,0,0,1.075.067,2.537,2.537,0,0,0,2.019-.822A3.264,3.264,0,0,0,296.362,329.548Z" transform="translate(-288.254 -315.662)" fill="#24732b"/>
              <path id="Trazado_3850" data-name="Trazado 3850" d="M334.972,326.3a7.22,7.22,0,0,1-2.012,5.414,7.314,7.314,0,0,1-5.341,1.907,6.829,6.829,0,0,1-5.017-1.8,6.722,6.722,0,0,1-1.828-5.008q0-4.5,3.435-6.228a8.441,8.441,0,0,1,3.842-.787,7.1,7.1,0,0,1,5.078,1.712A6.261,6.261,0,0,1,334.972,326.3Zm-2.883.484a7.525,7.525,0,0,0-1.086-4.3,3.623,3.623,0,0,0-3.194-1.6,3.569,3.569,0,0,0-3.686,2.5,8.35,8.35,0,0,0-.466,2.869,8.446,8.446,0,0,0,1.066,4.566,3.661,3.661,0,0,0,3.3,1.729,3.523,3.523,0,0,0,3.58-2.628A9.5,9.5,0,0,0,332.089,326.784Z" transform="translate(-307.437 -315.395)" fill="#24732b"/>
              <path id="Trazado_3851" data-name="Trazado 3851" d="M370.371,330.393a20.425,20.425,0,0,0-.21,3.087l-.093.092-6.8-.057c-1.133,0-1.934.022-2.4.057l-.1-.092v-.263l.047-.114a3.408,3.408,0,0,0,.749-.55,4.893,4.893,0,0,0,.1-1.244l.027-2.1v-4.74a21.1,21.1,0,0,0-.12-2.9.411.411,0,0,0-.318-.346,10.053,10.053,0,0,0-1.1-.094l-.089-.095V320.4l.089-.083c.645.039,1.587.055,2.828.055,1.282,0,2.258-.016,2.924-.055l.1.083v.646l-.1.085a9.856,9.856,0,0,0-1.089.094.407.407,0,0,0-.32.346,20.6,20.6,0,0,0-.121,2.9v5.591c0,.819.014,1.607.047,2.375H365.7a14.873,14.873,0,0,0,3.348-.213.286.286,0,0,0,.149-.105,1.62,1.62,0,0,0,.178-.559l.224-1.161.092-.1h.572Z" transform="translate(-330.618 -315.702)" fill="#24732b"/>
              <path id="Trazado_3852" data-name="Trazado 3852" d="M395.731,326.837l-.087.092c-.622-.035-1.587-.057-2.887-.057s-2.259.022-2.884.057l-.083-.092v-.628l.094-.094a10.513,10.513,0,0,0,1.095-.092.406.406,0,0,0,.317-.346,20.8,20.8,0,0,0,.123-2.9v-4.948a20.8,20.8,0,0,0-.123-2.9.4.4,0,0,0-.317-.346,9.9,9.9,0,0,0-1.095-.094l-.094-.095v-.636l.094-.083c.6.039,1.559.055,2.881.055s2.273-.016,2.872-.055l.1.083v.636l-.1.095a10.067,10.067,0,0,0-1.1.094.406.406,0,0,0-.315.346,20.806,20.806,0,0,0-.12,2.9v4.948a20.808,20.808,0,0,0,.12,2.9.408.408,0,0,0,.315.346,10.7,10.7,0,0,0,1.1.092l.1.094Zm.127-17.5-4.216,3.047-.431-.326v-.131l2.048-2.582,2.392-.289Z" transform="translate(-348.146 -309.06)" fill="#24732b"/>
              <path id="Trazado_3853" data-name="Trazado 3853" d="M422.448,321.05l-.1.1a3.088,3.088,0,0,0-.835.15,1.12,1.12,0,0,0-.389.425,16.565,16.565,0,0,0-.8,1.761l-.664,1.579-1.253,3.047q-1.62,3.933-2.18,5.527h-1.421l-4.293-10.407a7.4,7.4,0,0,0-.952-1.869,1.974,1.974,0,0,0-1.14-.213l-.1-.107v-.615l.1-.1c.655.039,1.481.055,2.48.055,1.246,0,2.381-.016,3.4-.055l.094.1v.625l-.084.1a3.107,3.107,0,0,0-1.245.167.335.335,0,0,0-.158.319,9.6,9.6,0,0,0,.607,1.774l.439,1.112,2.368,5.846,2.074-5.209q.121-.3.562-1.5a11.323,11.323,0,0,0,.636-2.031c0-.205-.071-.331-.206-.374a6.881,6.881,0,0,0-1.255-.1l-.091-.1v-.634l.1-.1c.7.039,1.435.055,2.2.055.541,0,1.206-.016,1.989-.055l.105.1Z" transform="translate(-359.079 -315.702)" fill="#24732b"/>
              <path id="Trazado_3854" data-name="Trazado 3854" d="M455.149,333.385l-.086.092c-1.382-.035-2.216-.057-2.505-.057-1.148,0-2.213.022-3.2.057l-.084-.092V332.8l.093-.105.814-.047c.342-.018.514-.139.514-.366a3.446,3.446,0,0,0-.262-.877l-.758-1.974q-1.291-.019-2.638-.021-.727,0-2.168.021l-.411,1.141a7.073,7.073,0,0,0-.468,1.627c0,.236.142.379.439.423.164.023.482.05.953.072l.093.092v.6l-.093.092c-1.153-.035-1.9-.057-2.224-.057-.258,0-.89.022-1.9.057l-.094-.085v-.607l.1-.092q.967-.057,1.184-.384t1.652-3.9l2.44-6.107q.269-.713.823-2.142H448.7l4.955,11.663c.194.441.37.693.525.748a2.758,2.758,0,0,0,.888.11l.086.1Zm-5.929-5.033-2-4.9-1.918,4.9c.51.017,1.176.027,1.992.027C448.085,328.379,448.726,328.37,449.22,328.353Z" transform="translate(-378.452 -315.608)" fill="#24732b"/>
              <path id="Trazado_3855" data-name="Trazado 3855" d="M491.681,333.439l-.092.092c-.045,0-.165,0-.358-.01-.854-.027-1.388-.047-1.6-.047-.316,0-.823.022-1.515.057a2.563,2.563,0,0,0-.357-.749l-2.319-3.869-1.036-1.584a2.781,2.781,0,0,0-.55-.57l.1-.317c.143.008.25.01.317.01a3,3,0,0,0,1.44-.288,2.5,2.5,0,0,0,.879-.917,2.929,2.929,0,0,0,.4-1.562,2.12,2.12,0,0,0-1.176-2.131,4.028,4.028,0,0,0-1.636-.263,5.1,5.1,0,0,0-.9.076c-.064.612-.094,1.651-.094,3.125v4.89a20.471,20.471,0,0,0,.123,2.9.41.41,0,0,0,.317.346,10.578,10.578,0,0,0,1.1.092l.092.094v.628l-.081.092c-.625-.035-1.584-.057-2.883-.057-1.34,0-2.3.022-2.88.057l-.091-.085v-.634l.091-.094a10.731,10.731,0,0,0,1.1-.092.411.411,0,0,0,.318-.346,21.3,21.3,0,0,0,.12-2.9v-4.947a21.3,21.3,0,0,0-.12-2.9.408.408,0,0,0-.318-.346,10.093,10.093,0,0,0-1.1-.094L478.88,321v-.636l.091-.083c.61.039,1.569.055,2.88.055.762,0,1.376-.009,1.851-.029q1.413-.054,2.115-.055a7.11,7.11,0,0,1,2.373.291,2.209,2.209,0,0,1,1.367,1.328,3.122,3.122,0,0,1,.17,1.084q0,2.541-2.865,3.612c.314.521.645,1.052.991,1.586l1.441,2.218a10.266,10.266,0,0,0,1.692,2.235,1.1,1.1,0,0,0,.6.14l.092.092Z" transform="translate(-400.697 -315.662)" fill="#24732b"/>
            </g>
          </g>
        </g>
        <g id="Grupo_6595" data-name="Grupo 6595" transform="translate(112.078 212.755)">
          <rect id="Rectángulo_1519" data-name="Rectángulo 1519" width="0.511" height="4.689" transform="translate(83.898 0.216)" fill="#464545"/>
          <g id="Grupo_6593" data-name="Grupo 6593">
            <path id="Trazado_3856" data-name="Trazado 3856" d="M128.988,366.959v-3h1.127a1.4,1.4,0,0,1,.552.091.717.717,0,0,1,.325.281.738.738,0,0,1,.118.4.679.679,0,0,1-.1.362.745.745,0,0,1-.315.275.786.786,0,0,1,.419.273.73.73,0,0,1,.146.455.881.881,0,0,1-.089.392.762.762,0,0,1-.22.28.92.92,0,0,1-.329.148,2.018,2.018,0,0,1-.485.05Zm.4-1.741h.649a1.462,1.462,0,0,0,.379-.034.427.427,0,0,0,.229-.15.433.433,0,0,0,.077-.262.48.48,0,0,0-.072-.263.361.361,0,0,0-.205-.156,1.713,1.713,0,0,0-.456-.042h-.6Zm0,1.387h.748a1.667,1.667,0,0,0,.27-.015.652.652,0,0,0,.23-.082.425.425,0,0,0,.151-.167.519.519,0,0,0,.059-.252.5.5,0,0,0-.086-.293.46.46,0,0,0-.239-.173,1.477,1.477,0,0,0-.44-.05h-.694Z" transform="translate(-128.988 -363.198)" fill="#464545"/>
            <path id="Trazado_3857" data-name="Trazado 3857" d="M135.047,366.959l1.153-3h.428l1.229,3H137.4l-.35-.909H135.8l-.33.909Zm.866-1.233h1.018l-.314-.832q-.143-.378-.213-.623a3.786,3.786,0,0,1-.162.573Z" transform="translate(-132.562 -363.198)" fill="#464545"/>
            <path id="Trazado_3858" data-name="Trazado 3858" d="M142.688,366.959v-3h1.332a1.767,1.767,0,0,1,.61.081.668.668,0,0,1,.334.286.853.853,0,0,1,.125.452.756.756,0,0,1-.207.539,1.053,1.053,0,0,1-.639.278,1.006,1.006,0,0,1,.24.149,2.04,2.04,0,0,1,.33.4l.523.817h-.5l-.4-.624c-.116-.18-.212-.319-.287-.414a.872.872,0,0,0-.2-.2.6.6,0,0,0-.181-.08,1.25,1.25,0,0,0-.221-.014h-.461v1.333Zm.4-1.677h.854a1.277,1.277,0,0,0,.426-.057.455.455,0,0,0,.233-.18.486.486,0,0,0,.08-.269.447.447,0,0,0-.155-.35.722.722,0,0,0-.488-.138h-.951Z" transform="translate(-137.069 -363.198)" fill="#464545"/>
            <path id="Trazado_3859" data-name="Trazado 3859" d="M150.075,366.959v-3h1.331a1.768,1.768,0,0,1,.611.081.669.669,0,0,1,.334.286.853.853,0,0,1,.125.452.756.756,0,0,1-.207.539,1.054,1.054,0,0,1-.639.278,1.006,1.006,0,0,1,.24.149,2.04,2.04,0,0,1,.33.4l.523.817h-.5l-.4-.624c-.116-.18-.212-.319-.287-.414a.88.88,0,0,0-.2-.2.6.6,0,0,0-.181-.08,1.253,1.253,0,0,0-.221-.014h-.461v1.333Zm.4-1.677h.854a1.277,1.277,0,0,0,.426-.057.455.455,0,0,0,.233-.18.486.486,0,0,0,.08-.269.447.447,0,0,0-.155-.35.723.723,0,0,0-.489-.138h-.95Z" transform="translate(-141.426 -363.198)" fill="#464545"/>
            <path id="Trazado_3860" data-name="Trazado 3860" d="M156.643,366.959l1.153-3h.428l1.229,3H159l-.351-.909h-1.255l-.33.909Zm.867-1.233h1.018l-.313-.832q-.143-.378-.213-.623a3.831,3.831,0,0,1-.162.573Z" transform="translate(-145.301 -363.198)" fill="#464545"/>
            <path id="Trazado_3861" data-name="Trazado 3861" d="M164.259,366.959v-3h.408l1.577,2.358v-2.358h.381v3h-.408l-1.577-2.36v2.36Z" transform="translate(-149.793 -363.198)" fill="#464545"/>
            <path id="Trazado_3862" data-name="Trazado 3862" d="M173.726,366.562a2.448,2.448,0,0,0,.51.279l-.117.276a2.347,2.347,0,0,1-.645-.369,1.487,1.487,0,0,1-.737.187,1.426,1.426,0,0,1-.739-.2,1.311,1.311,0,0,1-.511-.553,1.764,1.764,0,0,1-.179-.8,1.8,1.8,0,0,1,.18-.809,1.271,1.271,0,0,1,.513-.555,1.472,1.472,0,0,1,.745-.191,1.449,1.449,0,0,1,.75.2,1.289,1.289,0,0,1,.509.553,1.785,1.785,0,0,1,.176.8,1.867,1.867,0,0,1-.113.667A1.4,1.4,0,0,1,173.726,366.562Zm-.874-.508a1.462,1.462,0,0,1,.567.287,1.238,1.238,0,0,0,.35-.961,1.528,1.528,0,0,0-.124-.637.954.954,0,0,0-.363-.424,1.04,1.04,0,0,0-1.273.154,1.26,1.26,0,0,0-.293.908,1.276,1.276,0,0,0,.29.9.964.964,0,0,0,.74.314,1.019,1.019,0,0,0,.4-.08,1.3,1.3,0,0,0-.393-.172Z" transform="translate(-153.95 -363.122)" fill="#464545"/>
            <path id="Trazado_3863" data-name="Trazado 3863" d="M181.592,363.956h.4v1.736a2.046,2.046,0,0,1-.1.719.878.878,0,0,1-.37.434,1.311,1.311,0,0,1-.7.167,1.44,1.44,0,0,1-.69-.146.83.83,0,0,1-.383-.421,2,2,0,0,1-.115-.752v-1.736h.4v1.733a1.69,1.69,0,0,0,.073.577.553.553,0,0,0,.25.286.872.872,0,0,0,.433.1.832.832,0,0,0,.625-.2,1.149,1.149,0,0,0,.186-.764Z" transform="translate(-158.858 -363.198)" fill="#464545"/>
            <path id="Trazado_3864" data-name="Trazado 3864" d="M187.164,366.959v-3h.4v3Z" transform="translate(-163.304 -363.198)" fill="#464545"/>
            <path id="Trazado_3865" data-name="Trazado 3865" d="M189.8,366.959v-3h.4v2.649h1.479v.354Z" transform="translate(-164.859 -363.198)" fill="#464545"/>
            <path id="Trazado_3866" data-name="Trazado 3866" d="M195.49,366.959v-3h.4v2.649h1.479v.354Z" transform="translate(-168.215 -363.198)" fill="#464545"/>
            <path id="Trazado_3867" data-name="Trazado 3867" d="M200.415,366.959l1.153-3H202l1.229,3h-.453l-.35-.909h-1.255l-.33.909Zm.866-1.233H202.3l-.314-.832q-.143-.378-.213-.623a3.786,3.786,0,0,1-.162.573Z" transform="translate(-171.12 -363.198)" fill="#464545"/>
            <path id="Trazado_3868" data-name="Trazado 3868" d="M210.532,366.959v-1.271l-1.157-1.732h.483l.592.906q.164.254.305.508.135-.235.328-.53l.582-.883h.463l-1.2,1.732v1.271Z" transform="translate(-176.405 -363.198)" fill="#464545"/>
            <path id="Trazado_3869" data-name="Trazado 3869" d="M221.591,365.834l.4.1a1.338,1.338,0,0,1-.45.746,1.241,1.241,0,0,1-.794.257,1.426,1.426,0,0,1-.789-.2,1.228,1.228,0,0,1-.463-.572,2.044,2.044,0,0,1-.159-.806,1.774,1.774,0,0,1,.179-.818,1.226,1.226,0,0,1,.51-.53,1.485,1.485,0,0,1,.728-.181,1.228,1.228,0,0,1,.758.229,1.193,1.193,0,0,1,.428.645l-.391.093a.934.934,0,0,0-.3-.478.811.811,0,0,0-.5-.149.971.971,0,0,0-.578.165.875.875,0,0,0-.327.446,1.8,1.8,0,0,0-.094.577,1.85,1.85,0,0,0,.111.669.835.835,0,0,0,.347.427.974.974,0,0,0,.51.142.861.861,0,0,0,.566-.192A.988.988,0,0,0,221.591,365.834Z" transform="translate(-182.28 -363.126)" fill="#464545"/>
            <path id="Trazado_3870" data-name="Trazado 3870" d="M228.98,362.867h.4V364.6a2.046,2.046,0,0,1-.1.719.88.88,0,0,1-.37.434,1.312,1.312,0,0,1-.7.167,1.439,1.439,0,0,1-.69-.146.828.828,0,0,1-.383-.421,2,2,0,0,1-.115-.752v-1.736h.4V364.6a1.691,1.691,0,0,0,.073.577.554.554,0,0,0,.25.286.874.874,0,0,0,.434.1.832.832,0,0,0,.625-.2,1.149,1.149,0,0,0,.186-.764Zm-1.036-.184.272-.573h.484l-.451.573Z" transform="translate(-186.81 -362.109)" fill="#464545"/>
            <path id="Trazado_3871" data-name="Trazado 3871" d="M236.365,365.834l.4.1a1.335,1.335,0,0,1-.45.746,1.241,1.241,0,0,1-.794.257,1.425,1.425,0,0,1-.79-.2,1.225,1.225,0,0,1-.463-.572,2.037,2.037,0,0,1-.159-.806,1.769,1.769,0,0,1,.179-.818,1.223,1.223,0,0,1,.51-.53,1.484,1.484,0,0,1,.728-.181,1.229,1.229,0,0,1,.758.229,1.192,1.192,0,0,1,.428.645l-.391.093a.932.932,0,0,0-.3-.478.809.809,0,0,0-.5-.149.972.972,0,0,0-.579.165.876.876,0,0,0-.327.446,1.793,1.793,0,0,0-.094.577,1.841,1.841,0,0,0,.112.669.835.835,0,0,0,.347.427.973.973,0,0,0,.51.142.859.859,0,0,0,.565-.192A.983.983,0,0,0,236.365,365.834Z" transform="translate(-190.994 -363.126)" fill="#464545"/>
            <path id="Trazado_3872" data-name="Trazado 3872" d="M243.754,363.956h.4v1.736a2.046,2.046,0,0,1-.1.719.883.883,0,0,1-.37.434,1.313,1.313,0,0,1-.7.167,1.438,1.438,0,0,1-.69-.146.828.828,0,0,1-.383-.421,2,2,0,0,1-.115-.752v-1.736h.4v1.733a1.69,1.69,0,0,0,.073.577.552.552,0,0,0,.25.286.873.873,0,0,0,.434.1.831.831,0,0,0,.625-.2,1.147,1.147,0,0,0,.187-.764Z" transform="translate(-195.525 -363.198)" fill="#464545"/>
            <path id="Trazado_3873" data-name="Trazado 3873" d="M249.6,366.959v-2.648h-.989v-.355h2.38v.355H250v2.648Z" transform="translate(-199.55 -363.198)" fill="#464545"/>
            <path id="Trazado_3874" data-name="Trazado 3874" d="M253.846,366.959l1.153-3h.428l1.229,3H256.2l-.351-.909H254.6l-.33.909Zm.867-1.233h1.018l-.313-.832q-.143-.378-.213-.623a3.835,3.835,0,0,1-.162.573Z" transform="translate(-202.637 -363.198)" fill="#464545"/>
            <path id="Trazado_3875" data-name="Trazado 3875" d="M263.285,368.548v-.37h1.133v.37Z" transform="translate(-208.205 -365.689)" fill="#464545"/>
            <path id="Trazado_3876" data-name="Trazado 3876" d="M271.975,365.834l.4.1a1.336,1.336,0,0,1-.45.746,1.239,1.239,0,0,1-.793.257,1.425,1.425,0,0,1-.79-.2,1.226,1.226,0,0,1-.463-.572,2.037,2.037,0,0,1-.159-.806,1.769,1.769,0,0,1,.18-.818,1.225,1.225,0,0,1,.509-.53,1.487,1.487,0,0,1,.729-.181,1.229,1.229,0,0,1,.758.229,1.19,1.19,0,0,1,.428.645l-.391.093a.929.929,0,0,0-.3-.478.809.809,0,0,0-.5-.149.972.972,0,0,0-.579.165.876.876,0,0,0-.327.446,1.793,1.793,0,0,0-.094.577,1.841,1.841,0,0,0,.112.669.833.833,0,0,0,.347.427.973.973,0,0,0,.51.142.86.86,0,0,0,.565-.192A.985.985,0,0,0,271.975,365.834Z" transform="translate(-211.999 -363.126)" fill="#464545"/>
            <path id="Trazado_3877" data-name="Trazado 3877" d="M277.09,365.42a1.636,1.636,0,0,1,.4-1.171,1.366,1.366,0,0,1,1.036-.422,1.432,1.432,0,0,1,.75.2,1.3,1.3,0,0,1,.509.554,1.8,1.8,0,0,1,.175.806,1.766,1.766,0,0,1-.185.817,1.251,1.251,0,0,1-.523.546,1.493,1.493,0,0,1-.729.186,1.427,1.427,0,0,1-.758-.2,1.317,1.317,0,0,1-.506-.56A1.691,1.691,0,0,1,277.09,365.42Zm.41.007a1.2,1.2,0,0,0,.292.855,1.018,1.018,0,0,0,1.471,0,1.278,1.278,0,0,0,.29-.9,1.534,1.534,0,0,0-.124-.64.956.956,0,0,0-.362-.424.987.987,0,0,0-.536-.15,1.016,1.016,0,0,0-.726.289A1.3,1.3,0,0,0,277.5,365.427Z" transform="translate(-216.348 -363.122)" fill="#464545"/>
            <path id="Trazado_3878" data-name="Trazado 3878" d="M285.3,366.959v-3h.4v2.649h1.479v.354Z" transform="translate(-221.191 -363.198)" fill="#464545"/>
            <path id="Trazado_3879" data-name="Trazado 3879" d="M290.735,365.42a1.636,1.636,0,0,1,.4-1.171,1.365,1.365,0,0,1,1.036-.422,1.432,1.432,0,0,1,.75.2,1.3,1.3,0,0,1,.509.554,1.8,1.8,0,0,1,.175.806,1.766,1.766,0,0,1-.184.817,1.251,1.251,0,0,1-.523.546,1.493,1.493,0,0,1-.729.186,1.428,1.428,0,0,1-.758-.2,1.317,1.317,0,0,1-.506-.56A1.69,1.69,0,0,1,290.735,365.42Zm.41.007a1.2,1.2,0,0,0,.292.855,1.018,1.018,0,0,0,1.471,0,1.278,1.278,0,0,0,.29-.9,1.534,1.534,0,0,0-.124-.64.953.953,0,0,0-.362-.424.987.987,0,0,0-.536-.15,1.016,1.016,0,0,0-.726.289A1.3,1.3,0,0,0,291.145,365.427Z" transform="translate(-224.396 -363.122)" fill="#464545"/>
            <path id="Trazado_3880" data-name="Trazado 3880" d="M298.956,366.959v-3h.6l.711,2.127q.1.3.143.445c.034-.11.087-.27.16-.482l.719-2.09h.535v3h-.383v-2.513l-.873,2.513h-.358l-.869-2.556v2.556Z" transform="translate(-229.246 -363.198)" fill="#464545"/>
            <path id="Trazado_3881" data-name="Trazado 3881" d="M307.467,366.959v-3h1.127a1.4,1.4,0,0,1,.552.091.713.713,0,0,1,.325.281.738.738,0,0,1,.118.4.679.679,0,0,1-.1.362.74.74,0,0,1-.315.275.785.785,0,0,1,.419.273.728.728,0,0,1,.146.455.881.881,0,0,1-.089.392.77.77,0,0,1-.22.28.922.922,0,0,1-.329.148,2.014,2.014,0,0,1-.484.05Zm.4-1.741h.649a1.463,1.463,0,0,0,.379-.034.426.426,0,0,0,.228-.15.433.433,0,0,0,.077-.262.481.481,0,0,0-.072-.263.36.36,0,0,0-.2-.156,1.717,1.717,0,0,0-.457-.042h-.6Zm0,1.387h.748a1.674,1.674,0,0,0,.27-.015.647.647,0,0,0,.229-.082.429.429,0,0,0,.152-.167.519.519,0,0,0,.059-.252.5.5,0,0,0-.086-.293.46.46,0,0,0-.238-.173,1.479,1.479,0,0,0-.44-.05h-.694Z" transform="translate(-234.266 -363.198)" fill="#464545"/>
            <path id="Trazado_3882" data-name="Trazado 3882" d="M314.494,366.959v-3h.4v3Z" transform="translate(-238.411 -363.198)" fill="#464545"/>
            <path id="Trazado_3883" data-name="Trazado 3883" d="M316.367,366.959l1.153-3h.428l1.229,3h-.452l-.35-.909h-1.256l-.33.909Zm.867-1.233h1.018l-.313-.832q-.143-.378-.213-.623a3.781,3.781,0,0,1-.162.573Z" transform="translate(-239.516 -363.198)" fill="#464545"/>
          </g>
          <g id="Grupo_6594" data-name="Grupo 6594" transform="translate(88.564)">
            <path id="Trazado_3884" data-name="Trazado 3884" d="M346.088,366.959l-1.163-3h.43l.78,2.182q.094.261.158.491.07-.245.162-.491l.811-2.182h.406l-1.176,3Z" transform="translate(-344.925 -363.198)" fill="#464545"/>
            <path id="Trazado_3885" data-name="Trazado 3885" d="M352.656,366.959v-3h.4v3Z" transform="translate(-349.485 -363.198)" fill="#464545"/>
            <path id="Trazado_3886" data-name="Trazado 3886" d="M356.594,365.709v-.352l1.272,0v1.114a2.255,2.255,0,0,1-.6.352,1.8,1.8,0,0,1-.639.118,1.7,1.7,0,0,1-.8-.19,1.253,1.253,0,0,1-.546-.548,1.726,1.726,0,0,1-.185-.8,1.862,1.862,0,0,1,.183-.818,1.221,1.221,0,0,1,.527-.564,1.652,1.652,0,0,1,.793-.184,1.582,1.582,0,0,1,.589.1.98.98,0,0,1,.413.294,1.319,1.319,0,0,1,.227.491l-.358.1a1.12,1.12,0,0,0-.168-.36.689.689,0,0,0-.287-.21,1.059,1.059,0,0,0-.414-.078,1.216,1.216,0,0,0-.471.082.874.874,0,0,0-.321.218,1.041,1.041,0,0,0-.19.3,1.565,1.565,0,0,0-.115.6,1.471,1.471,0,0,0,.138.672.886.886,0,0,0,.4.4,1.246,1.246,0,0,0,.561.131,1.337,1.337,0,0,0,.5-.1,1.3,1.3,0,0,0,.373-.212v-.559Z" transform="translate(-350.92 -363.126)" fill="#464545"/>
            <path id="Trazado_3887" data-name="Trazado 3887" d="M363.454,366.959v-3h.4v3Z" transform="translate(-355.855 -363.198)" fill="#464545"/>
            <path id="Trazado_3888" data-name="Trazado 3888" d="M366.091,366.959v-3h.4v2.649h1.479v.354Z" transform="translate(-357.41 -363.198)" fill="#464545"/>
            <path id="Trazado_3889" data-name="Trazado 3889" d="M371.016,366.959l1.153-3h.428l1.229,3h-.452l-.351-.909h-1.255l-.33.909Zm.867-1.233H372.9l-.313-.832q-.143-.378-.213-.623a3.831,3.831,0,0,1-.162.573Z" transform="translate(-360.315 -363.198)" fill="#464545"/>
            <path id="Trazado_3890" data-name="Trazado 3890" d="M378.642,366.959v-3h1.035a2.5,2.5,0,0,1,.534.043,1.02,1.02,0,0,1,.44.215,1.219,1.219,0,0,1,.355.513,2.016,2.016,0,0,1,.118.714,2.1,2.1,0,0,1-.08.607,1.478,1.478,0,0,1-.2.437,1.1,1.1,0,0,1-.274.273,1.114,1.114,0,0,1-.359.151,2.092,2.092,0,0,1-.482.05Zm.4-.354h.641a1.563,1.563,0,0,0,.466-.055.661.661,0,0,0,.27-.156.954.954,0,0,0,.22-.38,1.858,1.858,0,0,0,.079-.579,1.4,1.4,0,0,0-.155-.724.778.778,0,0,0-.376-.338,1.549,1.549,0,0,0-.514-.062h-.631Z" transform="translate(-364.813 -363.198)" fill="#464545"/>
            <path id="Trazado_3891" data-name="Trazado 3891" d="M385.225,366.959l1.153-3h.428l1.229,3h-.453l-.35-.909h-1.256l-.33.909Zm.867-1.233h1.018l-.313-.832q-.143-.378-.213-.623a3.786,3.786,0,0,1-.162.573Z" transform="translate(-368.696 -363.198)" fill="#464545"/>
            <path id="Trazado_3892" data-name="Trazado 3892" d="M395.1,366.959v-3h.6l.711,2.127q.1.3.143.445c.034-.11.087-.27.16-.482l.719-2.09h.535v3h-.383v-2.513l-.873,2.513h-.358l-.869-2.556v2.556Z" transform="translate(-374.521 -363.198)" fill="#464545"/>
            <path id="Trazado_3893" data-name="Trazado 3893" d="M403.815,366.959v-3h.4v3Z" transform="translate(-379.662 -363.198)" fill="#464545"/>
            <path id="Trazado_3894" data-name="Trazado 3894" d="M406.482,366.959v-3h.408l1.577,2.358v-2.358h.381v3h-.407l-1.577-2.36v2.36Z" transform="translate(-381.235 -363.198)" fill="#464545"/>
            <path id="Trazado_3895" data-name="Trazado 3895" d="M413.9,366.959v-3h2.171v.355H414.3v.92h1.661v.352H414.3v1.022h1.844v.354Z" transform="translate(-385.61 -363.198)" fill="#464545"/>
            <path id="Trazado_3896" data-name="Trazado 3896" d="M420.7,366.959v-3h1.034a2.5,2.5,0,0,1,.535.043,1.02,1.02,0,0,1,.44.215,1.223,1.223,0,0,1,.355.513,2.016,2.016,0,0,1,.118.714,2.1,2.1,0,0,1-.08.607,1.467,1.467,0,0,1-.205.437,1.1,1.1,0,0,1-.273.273,1.118,1.118,0,0,1-.359.151,2.1,2.1,0,0,1-.482.05Zm.4-.354h.641a1.567,1.567,0,0,0,.466-.055.657.657,0,0,0,.269-.156.95.95,0,0,0,.221-.38,1.858,1.858,0,0,0,.079-.579,1.4,1.4,0,0,0-.155-.724.78.78,0,0,0-.376-.338,1.552,1.552,0,0,0-.514-.062H421.1Z" transform="translate(-389.622 -363.198)" fill="#464545"/>
            <path id="Trazado_3897" data-name="Trazado 3897" d="M430.068,363.956h.4v1.736a2.046,2.046,0,0,1-.1.719.883.883,0,0,1-.37.434,1.313,1.313,0,0,1-.7.167,1.439,1.439,0,0,1-.69-.146.826.826,0,0,1-.383-.421,2,2,0,0,1-.115-.752v-1.736h.4v1.733a1.69,1.69,0,0,0,.073.577.552.552,0,0,0,.25.286.873.873,0,0,0,.434.1.831.831,0,0,0,.625-.2,1.147,1.147,0,0,0,.187-.764Z" transform="translate(-393.989 -363.198)" fill="#464545"/>
            <path id="Trazado_3898" data-name="Trazado 3898" d="M437.452,365.834l.4.1a1.336,1.336,0,0,1-.45.746,1.24,1.24,0,0,1-.794.257,1.426,1.426,0,0,1-.79-.2,1.225,1.225,0,0,1-.463-.572,2.037,2.037,0,0,1-.159-.806,1.769,1.769,0,0,1,.18-.818,1.222,1.222,0,0,1,.509-.53,1.486,1.486,0,0,1,.728-.181,1.227,1.227,0,0,1,.758.229,1.19,1.19,0,0,1,.428.645l-.391.093a.931.931,0,0,0-.3-.478.81.81,0,0,0-.5-.149.972.972,0,0,0-.578.165.874.874,0,0,0-.327.446,1.793,1.793,0,0,0-.094.577,1.84,1.84,0,0,0,.112.669.832.832,0,0,0,.347.427.972.972,0,0,0,.51.142.86.86,0,0,0,.566-.192A.985.985,0,0,0,437.452,365.834Z" transform="translate(-398.172 -363.126)" fill="#464545"/>
            <path id="Trazado_3899" data-name="Trazado 3899" d="M442.058,366.959l1.153-3h.428l1.229,3h-.453l-.35-.909H442.81l-.33.909Zm.866-1.233h1.018l-.314-.832q-.143-.378-.213-.623a3.779,3.779,0,0,1-.162.573Z" transform="translate(-402.22 -363.198)" fill="#464545"/>
            <path id="Trazado_3900" data-name="Trazado 3900" d="M451.662,365.834l.4.1a1.336,1.336,0,0,1-.45.746,1.241,1.241,0,0,1-.794.257,1.425,1.425,0,0,1-.789-.2,1.226,1.226,0,0,1-.463-.572,2.037,2.037,0,0,1-.159-.806,1.769,1.769,0,0,1,.179-.818,1.223,1.223,0,0,1,.51-.53,1.484,1.484,0,0,1,.728-.181,1.229,1.229,0,0,1,.758.229,1.192,1.192,0,0,1,.428.645l-.391.093a.932.932,0,0,0-.3-.478.809.809,0,0,0-.5-.149.972.972,0,0,0-.579.165.876.876,0,0,0-.327.446,1.793,1.793,0,0,0-.094.577,1.84,1.84,0,0,0,.112.669.835.835,0,0,0,.347.427.973.973,0,0,0,.51.142.859.859,0,0,0,.565-.192A.983.983,0,0,0,451.662,365.834Z" transform="translate(-406.554 -363.126)" fill="#464545"/>
            <path id="Trazado_3901" data-name="Trazado 3901" d="M457.236,366.959v-3h.4v3Z" transform="translate(-411.173 -363.198)" fill="#464545"/>
            <path id="Trazado_3902" data-name="Trazado 3902" d="M459.618,364.407a1.636,1.636,0,0,1,.4-1.171,1.366,1.366,0,0,1,1.036-.422,1.432,1.432,0,0,1,.75.2,1.3,1.3,0,0,1,.509.554,1.8,1.8,0,0,1,.175.806,1.766,1.766,0,0,1-.185.817,1.252,1.252,0,0,1-.522.546,1.5,1.5,0,0,1-.73.186,1.425,1.425,0,0,1-.758-.2,1.315,1.315,0,0,1-.506-.56A1.69,1.69,0,0,1,459.618,364.407Zm.41.007a1.2,1.2,0,0,0,.292.855,1.018,1.018,0,0,0,1.471,0,1.28,1.28,0,0,0,.29-.9,1.533,1.533,0,0,0-.124-.64.953.953,0,0,0-.362-.424.987.987,0,0,0-.536-.15,1.016,1.016,0,0,0-.726.289A1.3,1.3,0,0,0,460.028,364.414Zm.774-1.731.272-.573h.484l-.451.573Z" transform="translate(-412.578 -362.109)" fill="#464545"/>
            <path id="Trazado_3903" data-name="Trazado 3903" d="M467.859,366.959v-3h.408l1.577,2.358v-2.358h.381v3h-.408l-1.577-2.36v2.36Z" transform="translate(-417.439 -363.198)" fill="#464545"/>
          </g>
        </g>
      </g>
    </g>
  </g>
</svg>
